<svg xmlns="http://www.w3.org/2000/svg" viewBox="0 0 202.61 199.25" fill="#2f3348">
  <path d="M77.98 113.4 4.02 124.74c-9.1-26-4-70.33 28.25-99.24C68.34-6.84 125.1-8.04 162.93 19.75c37.78 27.76 45.98 75.24 35.45 104.69l-74.16-10.84-1.8-67.11h-12.99v66.42H93.44V46.43H80.67l-2.7 66.97Zm47.06 13.07c23.69 2.29 47.02 4.36 69.43 11.91-6.94 25.91-40.62 54.34-69.43 58.36v-70.27ZM7.48 138.36c23.15-7.34 46.43-10.07 69.83-11.76v70.76c-32.92-8.99-56.62-27.13-69.83-59Zm101.32 60.89H93.83V125.6h14.97v73.65Z" />
</svg>
